<?xml version="1.0" encoding="UTF-8"?>
<svg id="Camada_1" xmlns="http://www.w3.org/2000/svg" version="1.1" viewBox="0 0 48.43 50.94">
  <!-- Generator: Adobe Illustrator 29.1.0, SVG Export Plug-In . SVG Version: 2.1.0 Build 142)  -->
  <defs>
    <style>
      .st0 {
        fill: #2e3189;
      }
    </style>
  </defs>
  <path class="st0" d="M34.76,32.06c1.42-4,1.98-12.4-2.05-15.95-4.61-3.96-14.39-3.29-19.46.32l2.53,5.01c3.69-2.95,13.02-4.04,12.88,2.62-4.95.13-12.32-.9-15.25,3.52-2.34,3.57-.76,8.65,3.24,10.35,2.85,1.43,11.1,2.04,12.61-.27l7.98,1.99-2.48-7.59ZM28.66,30.73c-.78,2.33-2.98,3.35-5.34,3.36-3.12.2-5.43-2.66-3.06-5.06,1.25-1.27,6.49-.71,8.4-.83v2.53Z"/>
</svg>