<?xml version="1.0" encoding="UTF-8"?><svg id="a" xmlns="http://www.w3.org/2000/svg" viewBox="0 0 200 200"><defs><style>.b{fill:#ffd874;}.c{fill:#2d2b92;}</style></defs><rect class="b" width="200" height="200"/><path class="c" d="M143.38,124.03c6.17-17.38,8.62-53.9-8.93-69.34-20.03-17.2-62.54-14.32-84.58,1.4l11,21.79c16.04-12.82,56.59-17.54,55.99,11.4-21.51.57-53.56-3.93-66.29,15.3-10.16,15.53-3.29,37.6,14.09,44.99,12.4,6.23,48.27,8.88,54.8-1.18l34.71,8.63-10.78-32.99ZM116.85,118.27c-3.4,10.12-12.95,14.57-23.2,14.6-13.58.88-23.62-11.56-13.3-22,5.43-5.54,28.2-3.09,36.5-3.6v10.99Z"/></svg>